/usr/bin/ffmpeg -hide_banner -y -y -r 24 -start_number 0 -start_number_range 1 -i /home/youther/website/youtherthyf-madehouse.neocities.org/images/blinkies/frame%04d.png -i /home/youther/website/youtherthyf-madehouse.neocities.org/images/blinkies/KritaTempPalettegen_%06d.png -lavfi [0:v][1:v]paletteuse=dither=sierra2_4a:diff_mode=none -f gif -loop 0 -gifflags +transdiff /home/youther/website/youtherthyf-madehouse.neocities.org/images/blinkies/farandabutton.gif
=====================================================
Input #0, image2, from '/home/youther/website/youtherthyf-madehouse.neocities.org/images/blinkies/frame%04d.png':
  Duration: 00:00:07.24, start: 0.000000, bitrate: N/A
  Stream #0:0: Video: png, rgba(pc, gbr/unknown/unknown), 88x31 [SAR 393:393 DAR 88:31], 25 fps, 25 tbr, 25 tbn
Input #1, image2, from '/home/youther/website/youtherthyf-madehouse.neocities.org/images/blinkies/KritaTempPalettegen_%06d.png':
  Duration: 00:00:00.04, start: 0.000000, bitrate: N/A
  Stream #1:0: Video: png, rgba(pc, gbr/unknown/unknown), 16x16 [SAR 1:1 DAR 1:1], 25 fps, 25 tbr, 25 tbn
Stream mapping:
  Stream #0:0 (png) -> paletteuse
  Stream #1:0 (png) -> paletteuse
  paletteuse:default -> Stream #0:0 (gif)
Press [q] to stop, [?] for help
Output #0, gif, to '/home/youther/website/youtherthyf-madehouse.neocities.org/images/blinkies/farandabutton.gif':
  Metadata:
    encoder         : Lavf61.7.100
  Stream #0:0: Video: gif, pal8(pc, gbr/unknown/unknown, progressive), 88x31 [SAR 1:1 DAR 88:31], q=2-31, 200 kb/s, 24 fps, 100 tbn
      Metadata:
        encoder         : Lavc61.19.101 gif
[out#0/gif @ 0x557e27a69480] video:40KiB audio:0KiB subtitle:0KiB other streams:0KiB global headers:0KiB muxing overhead: 0.049045%
frame=  181 fps=0.0 q=-0.0 Lsize=      40KiB time=00:00:07.54 bitrate=  43.3kbits/s speed=76.5x    
